<svg xmlns="http://www.w3.org/2000/svg" width="500" height="500" style="width:100%;height:100%;transform:translate3d(0,0,0);content-visibility:visible" viewBox="0 0 500 500"><defs><clipPath id="a"><path d="M0 0h500v500H0z"/></clipPath></defs><g clip-path="url(#a)"><g fill="#EBE6EE" style="display:block"><path d="M452.877 250c0 112.045-90.832 202.877-202.877 202.877-112.045 0-202.877-90.832-202.877-202.877 0-112.045 90.832-202.877 202.877-202.877 112.045 0 202.877 90.832 202.877 202.877z"/><path d="M85.855 152.671c-96.582 0-174.878-78.296-174.878-174.878 0-63.323 33.658-118.785 84.058-149.474-73.757 20.53-127.884 88.182-127.884 168.483 0 96.582 78.296 174.879 174.878 174.879 33.259 0 64.348-9.287 90.82-25.406-14.955 4.163-30.713 6.396-46.994 6.396z" opacity=".5" style="mix-blend-mode:multiply" transform="translate(201.242 253.71) scale(1.1601)"/></g><g style="display:block"><path fill="#121330" d="M129.876 355.6h240.248"/><path fill="none" stroke="#121330" stroke-linecap="round" stroke-linejoin="round" stroke-width="2" d="M-32.5-24.75h65" transform="matrix(3.69613 0 0 4.4 250 464.5)"/></g><g style="display:block"><path fill="#121330" d="M129.876 250h240.248"/><path fill="none" stroke="#121330" stroke-linecap="round" stroke-linejoin="round" stroke-width="2" d="M-32.5-24.75h65" transform="matrix(3.69613 0 0 4.4 250 358.9)"/></g><g style="display:block"><path fill="#121330" d="M129.876 144.4h240.248"/><path fill="none" stroke="#121330" stroke-linecap="round" stroke-linejoin="round" stroke-width="2" d="M-32.5-24.75h65" transform="matrix(3.69613 0 0 4.4 250 253.3)"/></g><g class="com" style="display:none"><path/><path/><path/><path/><path/><path/><path/><path/><path/><path/><path/><path/></g></g></svg>