<svg xmlns="http://www.w3.org/2000/svg" width="500" height="500" style="width:100%;height:100%;transform:translate3d(0,0,0);content-visibility:visible" viewBox="0 0 500 500"><defs><mask id="g" mask-type="alpha"><use xmlns:ns1="http://www.w3.org/1999/xlink" ns1:href="#a"/></mask><mask id="f" mask-type="alpha"><use xmlns:ns2="http://www.w3.org/1999/xlink" ns2:href="#b"/></mask><mask id="e" mask-type="alpha"><use xmlns:ns3="http://www.w3.org/1999/xlink" ns3:href="#c"/></mask><g id="a" fill="#4BB3FD" style="display:block"><path d="M373.547 148.923a1.82 1.82 0 0 0-1.334-.597h-62.828c-1.042 0-1.887.913-1.887 2.038l-.077 236.163c0 .54.199 1.059.552 1.441a1.82 1.82 0 0 0 1.334.597h62.842c1.041 0 1.886-.913 1.886-2.038l.065-236.163c0-.54-.2-1.058-.553-1.44z"/><path fill-opacity=".5" d="M34.782-112.933a2 2 0 0 0-1.414-.586h-66.601a2 2 0 0 0-2 2l-.082 231.747a2 2 0 0 0 2 2H33.3a2 2 0 0 0 2-2l.068-231.747a2 2 0 0 0-.586-1.414z" style="mix-blend-mode:multiply" transform="matrix(.94335 0 0 1.01905 340.735 264.008)"/></g><g id="b" fill="#FFC738" style="display:block"><path d="M279.9 222.439h-63.253c-1.048 0-1.9.9-1.9 2.01l-.052 162.491c0 .534.2 1.046.556 1.423.356.377.84.59 1.343.59h63.268c1.048 0 1.9-.901 1.9-2.012l.038-162.491c0-.533-.2-1.045-.556-1.422a1.848 1.848 0 0 0-1.343-.59z"/><path fill-opacity=".5" d="M33.341-80.379h-66.6a2 2 0 0 0-2 1.999l-.056 161.607a2.001 2.001 0 0 0 2 2.001H33.3a2 2 0 0 0 2-2l.041-161.607a2 2 0 0 0-2-2z" style="mix-blend-mode:multiply" transform="matrix(.94975 0 0 1.00548 248.235 303.258)"/></g><g id="c" fill="#646E78" style="display:block"><path d="M187.634 296.446h-63.266a1.9 1.9 0 0 0-1.9 1.9l-.035 88.577a1.9 1.9 0 0 0 1.9 1.9h63.28a1.9 1.9 0 0 0 1.9-1.9l.02-88.576a1.901 1.901 0 0 0-1.9-1.901z"/><path fill-opacity=".5" d="M33.315-48.228h-66.6a2 2 0 0 0-2 2l-.037 93.245a2 2 0 0 0 2 2h66.615a2 2 0 0 0 2-1.999l.022-93.245a2.001 2.001 0 0 0-2-2.001z" style="mix-blend-mode:multiply" transform="translate(155.987 342.26) scale(.94994)"/></g><clipPath id="d"><path d="M0 0h500v500H0z"/></clipPath></defs><g clip-path="url(#d)"><g fill="#636D78" style="display:block"><path d="M187.634 296.446h-63.266a1.9 1.9 0 0 0-1.9 1.9l-.035 88.577a1.9 1.9 0 0 0 1.9 1.9h63.28a1.9 1.9 0 0 0 1.9-1.9l.02-88.576a1.901 1.901 0 0 0-1.9-1.901z"/><path fill-opacity=".5" d="M33.315-48.228h-66.6a2 2 0 0 0-2 2l-.037 93.245a2 2 0 0 0 2 2h66.615a2 2 0 0 0 2-1.999l.022-93.245a2.001 2.001 0 0 0-2-2.001z" style="mix-blend-mode:multiply" transform="translate(155.987 342.26) scale(.94994)"/></g><g mask="url(#e)" style="display:block"><path fill="#636D78" d="M203.633 296.446h-63.266a1.9 1.9 0 0 0-1.9 1.9l-.035 88.577a1.9 1.9 0 0 0 1.9 1.9h63.28a1.9 1.9 0 0 0 1.9-1.9l.02-88.576a1.901 1.901 0 0 0-1.9-1.901z"/></g><g fill="#FFC638" style="display:block"><path d="M279.9 222.439h-63.253c-1.048 0-1.9.9-1.9 2.01l-.052 162.491c0 .534.2 1.046.556 1.423.356.377.84.59 1.343.59h63.268c1.048 0 1.9-.901 1.9-2.012l.038-162.491c0-.533-.2-1.045-.556-1.422a1.848 1.848 0 0 0-1.343-.59z"/><path fill-opacity=".5" d="M33.341-80.379h-66.6a2 2 0 0 0-2 1.999l-.056 161.607a2.001 2.001 0 0 0 2 2.001H33.3a2 2 0 0 0 2-2l.041-161.607a2 2 0 0 0-2-2z" style="mix-blend-mode:multiply" transform="matrix(.94975 0 0 1.00548 248.235 303.258)"/></g><g mask="url(#f)" style="display:block"><path fill="#FFC638" d="M295.9 222.439h-63.254c-1.048 0-1.9.9-1.9 2.01l-.053 162.491c0 .534.2 1.046.557 1.423.356.377.84.59 1.343.59h63.268c1.048 0 1.9-.901 1.9-2.012l.038-162.491c0-.533-.2-1.045-.556-1.422a1.848 1.848 0 0 0-1.343-.59z"/></g><g fill="#4AB3FC" style="display:block"><path d="M373.547 148.923a1.82 1.82 0 0 0-1.334-.597h-62.828c-1.042 0-1.887.913-1.887 2.038l-.077 236.163c0 .54.199 1.059.552 1.441a1.82 1.82 0 0 0 1.334.597h62.842c1.041 0 1.886-.913 1.886-2.038l.065-236.163c0-.54-.2-1.058-.553-1.44z"/><path fill-opacity=".5" d="M34.782-112.933a2 2 0 0 0-1.414-.586h-66.601a2 2 0 0 0-2 2l-.082 231.747a2 2 0 0 0 2 2H33.3a2 2 0 0 0 2-2l.068-231.747a2 2 0 0 0-.586-1.414z" style="mix-blend-mode:multiply" transform="matrix(.94335 0 0 1.01905 340.735 264.008)"/></g><g mask="url(#g)" style="display:block"><path fill="#4AB3FC" d="M389.546 148.923a1.82 1.82 0 0 0-1.334-.597h-62.829c-1.041 0-1.886.913-1.886 2.038l-.078 236.163c0 .54.2 1.059.553 1.441a1.82 1.82 0 0 0 1.334.597h62.842c1.041 0 1.886-.913 1.886-2.038l.064-236.163c0-.54-.199-1.058-.552-1.44z"/></g><path fill="none" stroke="#121330" stroke-linecap="round" stroke-linejoin="round" stroke-width="2.03" d="M-9.492 12.512h-18L-27.5 37.5h18.004l.004-24.988zm25-20h-18L-2.5 37.5h18.004l.004-44.988zm25-20h-18L22.5 37.5h18.004l.004-64.988z" style="display:block" transform="matrix(3.7 0 0 3.7 224.1 250)"/><path fill="none" stroke="#121330" stroke-linecap="round" stroke-linejoin="round" stroke-width="2.03" d="M-43.484-37.5v75H42.5" style="display:block" transform="matrix(3.7 0 0 3.7 250 250)"/><g class="com" style="display:none"><path/><path/><path/><path/><path/><path/><path/><path/><path/><path/><path/><path/></g></g></svg>