<svg xmlns="http://www.w3.org/2000/svg" width="500" height="500" style="width:100%;height:100%;transform:translate3d(0,0,0);content-visibility:visible" viewBox="0 0 500 500"><defs><clipPath id="g"><path d="M0 0h500v500H0z"/></clipPath><clipPath id="t"><path d="M0 0h500v500H0z"/></clipPath><clipPath id="u"><path d="M0 0h500v500H0z"/></clipPath><clipPath id="w"><path d="M0 0h500v500H0z"/></clipPath><clipPath id="B"><path d="M0 0h500v500H0z"/></clipPath><clipPath id="z"><path d="M0 0h500v500H0z"/></clipPath><clipPath id="y"><path d="M0 0h500v500H0z"/></clipPath><clipPath id="n"><path d="M0 0h500v500H0z"/></clipPath><clipPath id="o"><path d="M0 0h500v500H0z"/></clipPath><clipPath id="p"><path d="M0 0h500v500H0z"/></clipPath><clipPath id="s"><path d="M0 0h500v500H0z"/></clipPath><clipPath id="r"><path d="M0 0h500v500H0z"/></clipPath><clipPath id="q"><path d="M0 0h500v500H0z"/></clipPath><clipPath id="h"><path d="M0 0h500v500H0z"/></clipPath><clipPath id="i"><path d="M0 0h500v500H0z"/></clipPath><clipPath id="j"><path d="M0 0h500v500H0z"/></clipPath><clipPath id="m"><path d="M0 0h500v500H0z"/></clipPath><clipPath id="l"><path d="M0 0h500v500H0z"/></clipPath><clipPath id="k"><path d="M0 0h500v500H0z"/></clipPath><filter id="a" width="100%" height="100%" x="0%" y="0%" filterUnits="objectBoundingBox"><feComponentTransfer in="SourceGraphic"><feFuncA tableValues="1.0 0.0" type="table"/></feComponentTransfer></filter><filter id="c" width="100%" height="100%" x="0%" y="0%" filterUnits="objectBoundingBox"><feComponentTransfer in="SourceGraphic"><feFuncA tableValues="1.0 0.0" type="table"/></feComponentTransfer></filter><filter id="e" width="100%" height="100%" x="0%" y="0%" filterUnits="objectBoundingBox"><feComponentTransfer in="SourceGraphic"><feFuncA tableValues="1.0 0.0" type="table"/></feComponentTransfer></filter><mask id="A" mask-type="alpha"><g filter="url(#a)"><path fill="#fff" d="M0 0h500v500H0z" opacity="0"/><use xmlns:ns1="http://www.w3.org/1999/xlink" ns1:href="#b"/></g></mask><mask id="x" mask-type="alpha"><g filter="url(#c)"><path fill="#fff" d="M0 0h500v500H0z" opacity="0"/><use xmlns:ns2="http://www.w3.org/1999/xlink" ns2:href="#d"/></g></mask><mask id="v" mask-type="alpha"><g filter="url(#e)"><path fill="#fff" d="M0 0h500v500H0z" opacity="0"/><use xmlns:ns3="http://www.w3.org/1999/xlink" ns3:href="#f"/></g></mask><path id="d" style="display:none"/><path id="b" style="display:none"/><g id="f" style="display:none"><path/><path fill-opacity="0" stroke-linecap="round" stroke-linejoin="round"/></g></defs><g clip-path="url(#g)"><g clip-path="url(#h)" opacity="0" style="display:block"><g clip-path="url(#i)" opacity="1" style="display:block"><g clip-path="url(#j)" opacity="1" style="display:block"><g clip-path="url(#k)" style="display:none"><g style="display:none"><path/><path style="mix-blend-mode:multiply"/></g><g style="display:none"><path/><path/><path style="mix-blend-mode:multiply"/></g><path style="display:none"/><path style="display:none"/><g style="mix-blend-mode:multiply;display:none"><path style="mix-blend-mode:multiply"/></g></g><g clip-path="url(#l)" opacity="1" style="display:block"><g fill="#F14B00" opacity="1" style="display:block"><path d="m162.832 365.598 1.191 79.152 27.853-25.5 27.312 25-.235-78.4" opacity="1"/><path fill-opacity=".5" d="m-143.477 116.25.353 61 27.312 25-.235-78.4" opacity="1" style="mix-blend-mode:multiply" transform="translate(335 242)"/></g><g style="display:none"><path/><path/><path style="mix-blend-mode:multiply"/></g><path fill="#EBE6EE" d="M250.55 146.22c.13 64.84.47 236.9.47 236.9s23.34-16.13 50.33-16.33C341.83 366.5 429 382.26 429 382.26V124.27s-72.67-19.35-126.61-20.86c-32.69-.91-51.89 18.5-51.89 18.5l.05 24.31" opacity="1" style="display:block"/><path fill="#EBE6EE" d="M78.5 124.27s70.02-19.35 122-20.86c31.5-.91 50.94 18.62 50.94 18.62l.06 261.09s-23.99-16.13-50-16.33c-39-.29-123 15.47-123 15.47V124.27z" opacity="1" style="display:block"/><g style="mix-blend-mode:multiply;display:none"><path style="mix-blend-mode:multiply"/></g></g><g clip-path="url(#m)" style="display:none"><g style="display:none"><path/><path style="mix-blend-mode:multiply"/></g><g style="display:none"><path/><path/><path style="mix-blend-mode:multiply"/></g><path style="display:none"/><path style="display:none"/><g style="mix-blend-mode:multiply;display:none"><path style="mix-blend-mode:multiply"/></g></g></g></g><g style="display:none"><path/><path style="mix-blend-mode:multiply"/></g><g fill="#EBE6EE" opacity="1" style="display:block"><path d="M429.5 124.274s-72.87-19.35-126.965-20.859c-32.782-.915-52.035 18.492-52.035 18.492l.52 261.216s23.404-16.134 50.474-16.33c40.587-.293 128.006 15.47 128.006 15.47V124.274z"/><path fill-opacity=".5" d="M94.5-117.726s-72.87-19.35-126.965-20.859C-65.247-139.5-84.5-120.093-84.5-120.093l.52 261.216s23.404-16.134 50.474-16.33C7.081 124.5 94.5 140.263 94.5 140.263v-257.989z" style="mix-blend-mode:multiply" transform="translate(335 242)"/></g><g style="display:none"><path/><path style="mix-blend-mode:multiply"/></g><g fill="#EBE6EE" opacity="1" style="display:block"><path d="M295.11 17s-23.82 33.03-34.95 60.52c-6.46 17.54-9.68 53.31-9.68 53.31l.12 252.29s1.73-35.79 8.74-43.91c8.2-17.42 35.77-42.21 35.77-42.21V17z"/><path fill-opacity=".5" d="M-72.39-233s-23.82 33.03-34.95 60.52c-6.46 17.54-9.68 53.31-9.68 53.31l.12 252.29s1.73-35.79 8.74-43.91C-99.96 71.79-72.39 47-72.39 47v-280z" style="mix-blend-mode:multiply" transform="translate(367.5 250)"/></g></g><g clip-path="url(#n)" opacity="0" style="display:block"><g clip-path="url(#o)" opacity="1" style="display:block"><g clip-path="url(#p)" opacity="1" style="display:block"><g clip-path="url(#q)" style="display:none"><g style="display:none"><path/><path style="mix-blend-mode:multiply"/></g><g style="display:none"><path/><path/><path style="mix-blend-mode:multiply"/></g><path style="display:none"/><path style="display:none"/><g style="mix-blend-mode:multiply;display:none"><path style="mix-blend-mode:multiply"/></g></g><g clip-path="url(#r)" opacity="1" style="display:block"><g fill="#F14B00" opacity="1" style="display:block"><path d="m162.832 365.598 1.191 79.152 27.853-25.5 27.312 25-.235-78.4" opacity="1"/><path fill-opacity=".5" d="m-143.477 116.25.353 61 27.312 25-.235-78.4" opacity="1" style="mix-blend-mode:multiply" transform="translate(335 242)"/></g><g style="display:none"><path/><path/><path style="mix-blend-mode:multiply"/></g><path fill="#EBE6EE" d="M250.55 146.22c.13 64.84.47 236.9.47 236.9s23.34-16.13 50.33-16.33C341.83 366.5 429 382.26 429 382.26V124.27s-72.67-19.35-126.61-20.86c-32.69-.91-51.89 18.5-51.89 18.5l.05 24.31" opacity="1" style="display:block"/><path fill="#EBE6EE" d="M78.5 124.27s70.02-19.35 122-20.86c31.5-.91 50.94 18.62 50.94 18.62l.06 261.09s-23.99-16.13-50-16.33c-39-.29-123 15.47-123 15.47V124.27z" opacity="1" style="display:block"/><g style="mix-blend-mode:multiply;display:none"><path style="mix-blend-mode:multiply"/></g></g><g clip-path="url(#s)" style="display:none"><g style="display:none"><path/><path style="mix-blend-mode:multiply"/></g><g style="display:none"><path/><path/><path style="mix-blend-mode:multiply"/></g><path style="display:none"/><path style="display:none"/><g style="mix-blend-mode:multiply;display:none"><path style="mix-blend-mode:multiply"/></g></g></g></g><g style="display:none"><path/><path style="mix-blend-mode:multiply"/></g><g fill="#EBE6EE" opacity="1" style="display:block"><path d="M429.5 124.274s-72.87-19.35-126.965-20.859c-32.782-.915-52.035 18.492-52.035 18.492l.52 261.216s23.404-16.134 50.474-16.33c40.587-.293 128.006 15.47 128.006 15.47V124.274z"/><path fill-opacity=".5" d="M94.5-117.726s-72.87-19.35-126.965-20.859C-65.247-139.5-84.5-120.093-84.5-120.093l.52 261.216s23.404-16.134 50.474-16.33C7.081 124.5 94.5 140.263 94.5 140.263v-257.989z" style="mix-blend-mode:multiply" transform="translate(335 242)"/></g></g><g clip-path="url(#t)" style="display:block"><g clip-path="url(#u)" mask="url(#v)" style="display:block"><g clip-path="url(#w)" mask="url(#x)" style="display:block"><g clip-path="url(#y)" style="display:block"><g fill="#F14B00" style="display:block"><path d="m222.119 395.5-.29 58.5-25.5-25.5-25.005 25 1.164-57.997"/><path fill-opacity=".5" d="m-20.671 156.5-.5 30-25.005 25 .401-56.247" style="mix-blend-mode:multiply" transform="translate(217.5 242)"/></g><g style="display:block"><path fill="#EBE6EE" d="M143.944 370.49s.455-21.378 35.933-21.833c35.478-.455 184.668-.91 184.668-.91V98.983s-122.802-.458-185.351-1.402c-30.134-.455-35.478 23.765-35.023 32.082"/><path fill="#4AB3FC" d="M365 157.043s-154.191.172-185.578-.01c-36.047-.209-35.478-27.566-35.478-27.566l-.455 239.77s1.364 32.009 36.842 32.431c17.283.206 184.669 0 184.669 0V157.043z"/><path fill="#4AB3FC" fill-opacity=".5" d="M9.299-109.501C-8.476-116.3-8.839-132.848-8.839-134.098l-.46 239.691s.866 19.875 18.598 28.505v-243.599z" opacity=".5" style="mix-blend-mode:multiply" transform="translate(152.54 263.387)"/></g><path style="display:none"/><path style="display:none"/><g opacity=".5" style="mix-blend-mode:multiply;display:block"><path fill="#EBE6EE" d="M-75.282-28.377c-30.013 0-35.66 23.56-35.25 31.97 0 1.262.365 18.116 18.645 24.79-6.505-12.677-18.24-43.412 20.897-43.412 39.964 0 142.678 1.5 180.542 1.5 0-8.312-.25-13.604-.25-13.604s-174.878-1.244-184.584-1.244z" opacity="1" style="mix-blend-mode:multiply" transform="translate(254.958 126.453)"/></g></g><g clip-path="url(#z)" mask="url(#A)" style="display:none"><g style="display:none"><path/><path style="mix-blend-mode:multiply"/></g><g style="display:none"><path/><path/><path style="mix-blend-mode:multiply"/></g><path style="display:none"/><path style="display:none"/><g style="mix-blend-mode:multiply;display:none"><path style="mix-blend-mode:multiply"/></g></g><g clip-path="url(#B)" style="display:none"><g style="display:none"><path/><path style="mix-blend-mode:multiply"/></g><g style="display:none"><path/><path/><path style="mix-blend-mode:multiply"/></g><path style="display:none"/><path style="display:none"/><g style="mix-blend-mode:multiply;display:none"><path style="mix-blend-mode:multiply"/></g></g><g style="display:none"><path/><path style="mix-blend-mode:multiply"/></g></g><g style="display:none"><path/><path style="mix-blend-mode:multiply"/></g></g><g style="display:none"><path/><path style="mix-blend-mode:multiply"/><g fill="none"><path/><path style="mix-blend-mode:multiply"/></g></g><path fill="none" stroke="#121331" stroke-linecap="round" stroke-linejoin="round" stroke-width="7" d="M0 0" style="display:block" transform="translate(250 250)"/><path fill="none" stroke="#EBE6EE" stroke-linecap="round" stroke-linejoin="round" stroke-width="7" d="M117.5-115.726s-94.5-.024-147.721-.109" style="mix-blend-mode:multiply;display:block" transform="translate(217.5 242)"/><g style="display:block"><path fill="#F8C8C0" d="M296.821 239.074c0 22.05-17.876 39.926-39.926 39.926s-39.926-17.876-39.926-39.926 17.876-39.926 39.926-39.926 39.926 17.876 39.926 39.926z"/><path fill="none" stroke="#EBE6EE" stroke-linecap="round" stroke-linejoin="round" stroke-width="7" d="M192.624 324.901h126.228m-126.228 22.95h126.228"/></g></g><g class="com" style="display:none"><path/><path/><path/><path/><path/><path/><path/><path/><path/><path/><path/><path/></g></g></svg>