<svg xmlns="http://www.w3.org/2000/svg" width="500" height="500" style="width:100%;height:100%;transform:translate3d(0,0,0);content-visibility:visible" viewBox="0 0 500 500"><defs><clipPath id="a"><path d="M0 0h500v500H0z"/></clipPath></defs><g clip-path="url(#a)"><path fill="#FFC638" d="m261.287 123.084 139.026 240.799c5.016 8.689-1.254 19.55-11.287 19.55H110.974c-10.033 0-16.303-10.861-11.287-19.55l139.026-240.799c5.016-8.689 17.558-8.689 22.574 0z" style="display:block"/><g opacity=".5" style="mix-blend-mode:multiply;display:block"><path fill="#FFC638" d="M-41.429 133.43h-28.74c-10.03 0-16.3-10.86-11.29-19.55l139.03-240.8c5.01-8.68 17.56-8.68 22.57 0l3.08 5.34-135.95 235.46c-5 8.69 1.26 19.55 11.3 19.55z" opacity="1" style="mix-blend-mode:multiply" transform="translate(181.616 249.46)"/></g><path fill="#92130B" d="M252.7 293.59h-5.4c-7.39 0-13.47-5.8-13.83-13.17l-2.83-57.89c-.46-9.36 7.01-17.2 16.38-17.2h5.96c9.37 0 16.84 7.84 16.38 17.2l-2.83 57.89c-.36 7.37-6.44 13.17-13.83 13.17zm-18.55 41.89c0-8.75 7.09-15.85 15.85-15.85s15.85 7.1 15.85 15.85c0 8.76-7.09 15.85-15.85 15.85s-15.85-7.09-15.85-15.85z" style="display:block"/><g opacity=".5" style="mix-blend-mode:multiply;display:block"><path fill="#92130B" d="M256.001 293.106c-1.08.27-2.21.41-3.37.41h-5.41c-7.38 0-13.46-5.8-13.82-13.17l-2.83-57.89c-.46-9.36 7.01-17.2 16.38-17.2h5.96c1.06 0 2.09.1 3.09.3-7.86 1.49-13.7 8.6-13.29 16.9l2.83 57.89c.3 6.21 4.67 11.31 10.46 12.76zm0 56.95c-1.87.77-3.92 1.2-6.07 1.2-8.76 0-15.86-7.09-15.86-15.85 0-8.75 7.1-15.85 15.86-15.85 2.15 0 4.2.43 6.07 1.2-5.75 2.38-9.79 8.05-9.79 14.65 0 6.61 4.04 12.27 9.79 14.65z" opacity="1"/></g><g class="com" style="display:none"><path/><path/><path/><path/><path/><path/><path/><path/><path/><path/><path/><path/></g></g></svg>