<svg xmlns="http://www.w3.org/2000/svg" width="500" height="500" style="width:100%;height:100%;transform:translate3d(0,0,0);content-visibility:visible" viewBox="0 0 500 500"><defs><clipPath id="d"><path d="M0 0h500v500H0z"/></clipPath><clipPath id="k"><path d="M0 0h500v500H0z"/></clipPath><clipPath id="m"><path d="M0 0h500v500H0z"/></clipPath><clipPath id="h"><path d="M0 0h500v500H0z"/></clipPath><clipPath id="j"><path d="M0 0h500v500H0z"/></clipPath><clipPath id="e"><path d="M0 0h500v500H0z"/></clipPath><clipPath id="g"><path d="M0 0h500v500H0z"/></clipPath><path id="a" fill="#4BB3FD" d="M166.05 0c0 91.706-74.344 166.05-166.05 166.05-91.706 0-166.05-74.344-166.05-166.05 0-91.706 74.344-166.05 166.05-166.05 91.706 0 166.05 74.344 166.05 166.05z" style="display:block" transform="translate(250.002 250.001)"/><path id="b" fill="#4BB3FD" d="M166.05 0c0 91.706-74.344 166.05-166.05 166.05-91.706 0-166.05-74.344-166.05-166.05 0-91.706 74.344-166.05 166.05-166.05 91.706 0 166.05 74.344 166.05 166.05z" style="display:block" transform="translate(250.002 250)"/><path id="c" fill="#4BB3FD" d="M166.05 0c0 91.706-74.344 166.05-166.05 166.05-91.706 0-166.05-74.344-166.05-166.05 0-91.706 74.344-166.05 166.05-166.05 91.706 0 166.05 74.344 166.05 166.05z" style="display:block" transform="translate(250.002 250.001)"/><mask id="l" mask-type="alpha"><use xmlns:ns1="http://www.w3.org/1999/xlink" ns1:href="#a"/></mask><mask id="i" mask-type="alpha"><use xmlns:ns2="http://www.w3.org/1999/xlink" ns2:href="#b"/></mask><mask id="f" mask-type="alpha"><use xmlns:ns3="http://www.w3.org/1999/xlink" ns3:href="#c"/></mask></defs><g clip-path="url(#d)"><g clip-path="url(#e)" opacity="0" style="display:block"><path fill="#4AB3FC" d="M166.05 0c0 91.706-74.344 166.05-166.05 166.05-91.706 0-166.05-74.344-166.05-166.05 0-91.706 74.344-166.05 166.05-166.05 91.706 0 166.05 74.344 166.05 166.05z" opacity="1" style="display:block" transform="translate(250.002 250.001)"/><g mask="url(#f)" style="display:block"><g fill="none" clip-path="url(#g)" transform="matrix(.9 0 0 .9 25 25)"><path style="display:none"/><path style="display:none"/><path style="display:none"/><path style="display:none"/><path style="display:none"/><path style="display:none"/><path style="display:none"/><path stroke="#EBE6EE" stroke-linecap="round" stroke-linejoin="round" stroke-width="2" d="M126.667 50c-17.029 0-30.834-22.386-30.834-50s13.805-50 30.834-50m0 100c.083-8.75.166-22.386.166-50s-.083-34.25-.166-50" style="display:block" transform="matrix(3.69 0 0 3.69 -217.488 249.997)"/><path stroke="#EBE6EE" stroke-linecap="round" stroke-linejoin="round" stroke-width="2" d="M126.667 50C144.248 50 158.5 27.614 158.5 0s-14.252-50-31.833-50m-50 50h100" style="display:block" transform="matrix(3.69 0 0 3.69 -217.488 249.997)"/><path stroke="#EBE6EE" stroke-linecap="round" stroke-linejoin="round" stroke-width="2" d="M158.993-38.138c-8.71 4.56-19.99 7.31-32.32 7.31-12.33 0-23.61-2.75-32.33-7.31m0 76.278c8.71-4.56 19.99-7.31 32.32-7.31 12.33 0 23.61 2.75 32.33 7.31" style="display:block" transform="matrix(3.69 0 0 3.69 -217.484 249.997)"/></g></g><g opacity=".5" style="mix-blend-mode:multiply;display:block"><path fill="#4AB3FC" d="M83.025 166.05c-91.7 0-166.05-74.34-166.05-166.05 0-91.71 74.35-166.05 166.05-166.05-34.47 0-62.41 74.34-62.41 166.05 0 91.71 27.94 166.05 62.41 166.05z" opacity="1" style="mix-blend-mode:multiply" transform="translate(166.975 249.999)"/></g></g><g clip-path="url(#h)" opacity="0" style="display:block"><path fill="#4AB3FC" d="M166.05 0c0 91.706-74.344 166.05-166.05 166.05-91.706 0-166.05-74.344-166.05-166.05 0-91.706 74.344-166.05 166.05-166.05 91.706 0 166.05 74.344 166.05 166.05z" opacity="1" style="display:block" transform="translate(250.002 250)"/><g mask="url(#i)" style="display:block"><g fill="none" clip-path="url(#j)" transform="matrix(.9 0 0 .9 25 25)"><path style="display:none"/><path style="display:none"/><path style="display:none"/><path style="display:none"/><path style="display:none"/><path style="display:none"/><path style="display:none"/><path stroke="#EBE6EE" stroke-linecap="round" stroke-linejoin="round" stroke-width="2" d="M126.667 50c-17.029 0-30.834-22.386-30.834-50s13.805-50 30.834-50m0 100c.083-8.75.166-22.386.166-50s-.083-34.25-.166-50" style="display:block" transform="matrix(3.69 0 0 3.69 -217.488 249.997)"/><path stroke="#EBE6EE" stroke-linecap="round" stroke-linejoin="round" stroke-width="2" d="M126.667 50C144.248 50 158.5 27.614 158.5 0s-14.252-50-31.833-50m-50 50h100" style="display:block" transform="matrix(3.69 0 0 3.69 -217.488 249.997)"/><path stroke="#EBE6EE" stroke-linecap="round" stroke-linejoin="round" stroke-width="2" d="M158.993-38.138c-8.71 4.56-19.99 7.31-32.32 7.31-12.33 0-23.61-2.75-32.33-7.31m0 76.278c8.71-4.56 19.99-7.31 32.32-7.31 12.33 0 23.61 2.75 32.33 7.31" style="display:block" transform="matrix(3.69 0 0 3.69 -217.484 249.997)"/></g></g><g opacity=".5" style="mix-blend-mode:multiply;display:block"><path fill="#4AB3FC" d="M83.025 166.05c-91.7 0-166.05-74.34-166.05-166.05 0-91.71 74.35-166.05 166.05-166.05-34.47 0-62.41 74.34-62.41 166.05 0 91.71 27.94 166.05 62.41 166.05z" opacity="1" style="mix-blend-mode:multiply" transform="translate(166.975 250)"/></g></g><g clip-path="url(#k)" style="display:block"><path fill="#4AB3FC" d="M166.05 0c0 91.706-74.344 166.05-166.05 166.05-91.706 0-166.05-74.344-166.05-166.05 0-91.706 74.344-166.05 166.05-166.05 91.706 0 166.05 74.344 166.05 166.05z" style="display:block" transform="translate(250.002 250.001)"/><g mask="url(#l)" style="display:block"><g fill="none" clip-path="url(#m)" transform="matrix(.9 0 0 .9 25 25)"><path style="display:none"/><path style="display:none"/><path style="display:none"/><path style="display:none"/><path style="display:none"/><path style="display:none"/><path style="display:none"/><path stroke="#EBE6EE" stroke-linecap="round" stroke-linejoin="round" stroke-width="2" d="M126.667 50c-17.029 0-30.834-22.386-30.834-50s13.805-50 30.834-50m0 100c.083-8.75.166-22.386.166-50s-.083-34.25-.166-50" style="display:block" transform="matrix(3.69 0 0 3.69 -217.488 249.997)"/><path stroke="#EBE6EE" stroke-linecap="round" stroke-linejoin="round" stroke-width="2" d="M126.667 50C144.248 50 158.5 27.614 158.5 0s-14.252-50-31.833-50m-50 50h100" style="display:block" transform="matrix(3.69 0 0 3.69 -217.488 249.997)"/><path stroke="#EBE6EE" stroke-linecap="round" stroke-linejoin="round" stroke-width="2" d="M158.993-38.138c-8.71 4.56-19.99 7.31-32.32 7.31-12.33 0-23.61-2.75-32.33-7.31m0 76.278c8.71-4.56 19.99-7.31 32.32-7.31 12.33 0 23.61 2.75 32.33 7.31" style="display:block" transform="matrix(3.69 0 0 3.69 -217.484 249.997)"/></g></g><g opacity=".5" style="mix-blend-mode:multiply;display:block"><path fill="#4AB3FC" d="M83.025 166.05c-91.7 0-166.05-74.34-166.05-166.05 0-91.71 74.35-166.05 166.05-166.05-34.47 0-62.41 74.34-62.41 166.05 0 91.71 27.94 166.05 62.41 166.05z" opacity="1" style="mix-blend-mode:multiply" transform="translate(166.975 249.999)"/></g></g><g class="com" style="display:none"><path/><path/><path/><path/><path/><path/><path/><path/><path/><path/><path/><path/></g></g></svg>