<svg xmlns="http://www.w3.org/2000/svg" width="500" height="500" style="width:100%;height:100%;transform:translate3d(0,0,0);content-visibility:visible" viewBox="0 0 500 500"><defs><clipPath id="a"><path d="M0 0h500v500H0z"/></clipPath><clipPath id="c"><path d="M0 0h500v500H0z"/></clipPath><clipPath id="b"><path d="M0 0h500v500H0z"/></clipPath></defs><g clip-path="url(#a)"><g clip-path="url(#b)" opacity="0" style="display:block"><g style="display:none"><path/><path style="mix-blend-mode:multiply"/></g><g style="display:none"><path/><path fill="none"/></g><g fill="#393346" opacity="1" style="display:block"><path d="m352.293 187.472-.222-.144-42.993-45.915.026-32.104 43.254.059-.065 78.104z"/><path fill-opacity=".5" d="m-.397 30.672-.222-.144-42.993-45.915.026-32.104 43.254.059-.065 78.104z" style="mix-blend-mode:multiply" transform="translate(352.69 156.8)"/></g><g fill="#393346" opacity="1" style="display:block"><path d="M351.843 107.401h-41.697a3.096 3.096 0 0 0-3.096 3.096v30.643c0 .861.36 1.685.99 2.27l46.899 43.493c.011-4.01 0-76.406 0-76.406a3.096 3.096 0 0 0-3.096-3.096z" opacity="1"/><path d="M9.156-24.261c0-1.547.158-2.999.435-4.264H-6.091a3.5 3.5 0 0 0-3.5 3.5V9.617a3.5 3.5 0 0 0 1.12 2.566L9.156 28.525v-52.786z" opacity=".5" style="mix-blend-mode:multiply" transform="translate(315.535 132.634) scale(.88457)"/></g><g opacity="1" style="display:block"><path fill="#EBE6EE" d="M383.13 229.3v180.29a4 4 0 0 1-4 4H120.87a4 4 0 0 1-4-4V229.14L250 108.35l23.04 20.93L383.13 229.3z" opacity="1"/><path fill="#EBE6EE" d="M78.085-131.69-56.235-9.83v162.45h-17.85a4 4 0 0 1-4-4V-31.83l133.13-120.79 23.04 20.93z" opacity=".5" style="mix-blend-mode:multiply" transform="translate(194.955 260.97)"/><path fill="#B16836" d="M204.099 413.594V279.95a4 4 0 0 1 4-4h83.802a4 4 0 0 1 4 4v133.644h-91.802z" opacity="1"/><path fill="#B16836" d="M10.09-68.822H-6.09a4 4 0 0 0-4 4V68.822h20.18V-68.822z" opacity=".5" style="mix-blend-mode:multiply" transform="translate(214.189 344.772)"/><path fill="none" stroke="#393346" stroke-linecap="round" stroke-miterlimit="21.1" stroke-width="12" d="M276.99 345.481s0 0 0 0" opacity="1"/><path fill="#F14B00" d="M399.313 257.25 250.021 121.73 100.684 257.221a4.001 4.001 0 0 1-5.651-.275l-11.423-12.59a4 4 0 0 1 .275-5.65L241.624 95.593a12.498 12.498 0 0 1 16.8.002l157.692 143.144a4 4 0 0 1 .273 5.65l-11.426 12.587a4 4 0 0 1-5.65.274z" opacity="1"/></g><g opacity=".2" style="display:block"><path fill="none" stroke="#393346" stroke-linecap="round" stroke-linejoin="round" stroke-width="7" d="M338.849-9.036c4.826-8.974 11.153-16.609 19.083-22.027" opacity="1"/></g><g opacity=".2" style="display:block"><path fill="none" stroke="#393346" stroke-linecap="round" stroke-linejoin="round" stroke-width="7" d="M233.1 26.834C223.937 28.229 214.202 31.19 204 36c-28.617 13.491-52.184 20.339-66.448 17.103" opacity="1"/></g><g opacity=".2" style="display:block"><path fill="none" stroke="#393346" stroke-linecap="round" stroke-linejoin="round" stroke-width="7" d="M372.386 37.443c11.982-12.351 29.46-19.899 54.291-20.622C458.015 15.909 476.5 35 472.088 63.429c-5.037 32.454-47.945 33.549-65.578 15.277" opacity="1"/></g><path fill="none" style="display:none"/><path fill="none" style="display:none"/><path fill="none" style="display:none"/></g><g clip-path="url(#c)" style="display:block"><g style="display:none"><path/><path style="mix-blend-mode:multiply"/></g><g style="display:none"><path/><path fill="none"/></g><g fill="#393346" style="display:block"><path d="m352.293 187.472-.222-.144-42.993-45.915.026-32.104 43.254.059-.065 78.104z"/><path fill-opacity=".5" d="m-.397 30.672-.222-.144-42.993-45.915.026-32.104 43.254.059-.065 78.104z" style="mix-blend-mode:multiply" transform="translate(352.69 156.8)"/></g><g fill="#393346" style="display:block"><path d="M351.843 107.401h-41.697a3.096 3.096 0 0 0-3.096 3.096v30.643c0 .861.36 1.685.99 2.27l46.899 43.493c.011-4.01 0-76.406 0-76.406a3.096 3.096 0 0 0-3.096-3.096z"/><path d="M9.156-24.261c0-1.547.158-2.999.435-4.264H-6.091a3.5 3.5 0 0 0-3.5 3.5V9.617a3.5 3.5 0 0 0 1.12 2.566L9.156 28.525v-52.786z" opacity=".5" style="mix-blend-mode:multiply" transform="translate(315.535 132.634) scale(.88457)"/></g><g style="display:block"><path fill="#EBE6EE" d="M383.13 229.3v180.29a4 4 0 0 1-4 4H120.87a4 4 0 0 1-4-4V229.14L250 108.35l23.04 20.93L383.13 229.3z"/><path fill="#EBE6EE" d="M78.085-131.69-56.235-9.83v162.45h-17.85a4 4 0 0 1-4-4V-31.83l133.13-120.79 23.04 20.93z" opacity=".5" style="mix-blend-mode:multiply" transform="translate(194.955 260.97)"/><path fill="#B16836" d="M204.099 413.594V279.95a4 4 0 0 1 4-4h83.802a4 4 0 0 1 4 4v133.644h-91.802z"/><path fill="#B16836" d="M10.09-68.822H-6.09a4 4 0 0 0-4 4V68.822h20.18V-68.822z" opacity=".5" style="mix-blend-mode:multiply" transform="translate(214.189 344.772)"/><path fill="none" stroke="#393346" stroke-linecap="round" stroke-miterlimit="21.1" stroke-width="12" d="M276.99 345.481s0 0 0 0"/><path fill="#F14B00" d="M399.313 257.25 250.021 121.73 100.684 257.221a4.001 4.001 0 0 1-5.651-.275l-11.423-12.59a4 4 0 0 1 .275-5.65L241.624 95.593a12.498 12.498 0 0 1 16.8.002l157.692 143.144a4 4 0 0 1 .273 5.65l-11.426 12.587a4 4 0 0 1-5.65.274z"/></g></g><g class="com" style="display:none"><path/><path/><path/><path/><path/><path/><path/><path/><path/><path/><path/><path/></g></g></svg>