<svg xmlns="http://www.w3.org/2000/svg" width="500" height="500" style="width:100%;height:100%;transform:translate3d(0,0,0);content-visibility:visible" viewBox="0 0 500 500"><defs><clipPath id="b"><path d="M0 0h500v500H0z"/></clipPath><clipPath id="d"><path d="M0 0h500v500H0z"/></clipPath><mask id="c" mask-type="alpha"><use xmlns:ns1="http://www.w3.org/1999/xlink" ns1:href="#a"/></mask><g id="a" style="display:block"><path fill="#EBE6EF" d="M410.215 349.143c-72.49 70.267-188.219 68.466-258.487-4.025-70.267-72.49-68.465-188.219 4.025-258.486 72.49-70.268 188.22-68.466 258.487 4.024 70.267 72.49 68.465 188.22-4.025 258.487z"/><path fill-opacity="0" stroke="#07A889" stroke-linecap="round" stroke-linejoin="round" stroke-width="7.12" d="M410.215 349.143c-72.49 70.267-188.219 68.466-258.487-4.025-70.267-72.49-68.465-188.219 4.025-258.486 72.49-70.268 188.22-68.466 258.487 4.024 70.267 72.49 68.465 188.22-4.025 258.487z"/></g></defs><g clip-path="url(#b)"><g fill="#EBE6EE" style="display:block"><path d="M378.843 383.272c-72.49 70.267-188.22 68.465-258.487-4.025-70.267-72.49-68.465-188.22 4.025-258.487 72.49-70.267 188.22-68.465 258.487 4.025 70.267 72.49 68.465 188.22-4.025 258.487z"/><path fill-opacity=".5" d="M205.393 0c0 113.435-91.958 205.393-205.393 205.393S-205.393 113.435-205.393 0-113.435-205.393 0-205.393 205.393-113.435 205.393 0z" style="mix-blend-mode:multiply" transform="rotate(45.892 -171.83 423.167) scale(.89)"/></g><g mask="url(#c)" style="display:block"><path fill="#EBE6EE" d="M378.843 383.272c-72.49 70.267-188.22 68.465-258.487-4.025-70.267-72.49-68.465-188.22 4.025-258.487 72.49-70.267 188.22-68.465 258.487 4.025 70.267 72.49 68.465 188.22-4.025 258.487z"/></g><g fill="none" clip-path="url(#d)" style="display:block" transform="rotate(45.892 300.478 231.824) scale(1.12386)"><path stroke="#07A889" stroke-linecap="round" stroke-linejoin="round" stroke-width="2.5" d="M-18.393 18.241c.099-.106.2-.21.303-.313l36.183-36.183.193-.19" style="display:block" transform="rotate(-90 250 0) scale(3.74)"/><path style="display:none"/><path style="display:none"/><path stroke="#07A889" stroke-linecap="round" stroke-linejoin="round" stroke-width="2.5" d="M-19.071 18.564c.1-.106.202-.211.306-.315l36.426-36.426.194-.191" style="display:block" transform="rotate(180 125 125) scale(3.74)"/></g><g class="com" style="display:none"><path/><path/><path/><path/><path/><path/><path/><path/><path/><path/><path/><path/></g></g></svg>