<svg xmlns="http://www.w3.org/2000/svg" width="500" height="500" style="width:100%;height:100%;transform:translate3d(0,0,0);content-visibility:visible" viewBox="0 0 500 500"><defs><clipPath id="a"><path d="M0 0h500v500H0z"/></clipPath></defs><g clip-path="url(#a)"><g fill="#636D78" style="display:block"><path d="M399.23 352.1 256.92 209.79c12.79-31.36 6.47-68.68-18.98-94.13-20.859-20.859-49.701-28.87-76.685-24.033-4.79.859-6.666 6.722-3.225 10.163l30.469 30.47a6 6 0 0 1 1.641 5.42l-8.025 40.109a5.999 5.999 0 0 1-4.706 4.706l-40.624 8.13a4.999 4.999 0 0 1-4.517-1.368l-30.85-30.857c-3.44-3.441-9.303-1.566-10.163 3.224-4.843 26.986 3.175 55.837 24.035 76.697 25.13 25.13 61.85 31.619 92.95 19.449l141.4 141.401c12.65 12.65 33.28 14.94 47.07 3.55 15.88-13.12 16.72-36.431 2.52-50.621zm-17.89 30.44c-4.85 4.85-12.72 4.85-17.58 0-4.86-4.86-4.86-12.73 0-17.58 4.86-4.86 12.73-4.86 17.58 0 4.86 4.85 4.86 12.72 0 17.58z"/><path d="M53.843 53.843c-4.109 4.109-10.833 4.109-14.942 0l-92.744-92.744c-4.109-4.109-4.109-10.833 0-14.942s10.833-4.109 14.942 0l92.744 92.744c4.109 4.109 4.109 10.833 0 14.942z" opacity=".5" style="mix-blend-mode:multiply" transform="translate(298.201 298.614)"/><path d="m59.346-16.134-11.814 59.01a6 6 0 0 1-4.706 4.705l-59 11.806a6 6 0 0 1-5.42-1.641l-37.869-37.869a86.756 86.756 0 0 1 1.085-8.36c.856-4.768 6.732-6.602 10.157-3.176l30.845 30.853a5 5 0 0 0 4.518 1.367l40.624-8.13a5.999 5.999 0 0 0 4.706-4.706l8.025-40.109a6 6 0 0 0-1.641-5.42L8.387-48.273c-3.422-3.422-1.595-9.296 3.168-10.154a86.925 86.925 0 0 1 8.202-1.076l37.949 37.949a5.999 5.999 0 0 1 1.64 5.42z" opacity=".5" style="mix-blend-mode:multiply" transform="translate(149.643 150.063)"/></g><g class="com" style="display:none"><path/><path/><path/><path/><path/><path/><path/><path/><path/><path/><path/><path/></g></g></svg>