<svg xmlns="http://www.w3.org/2000/svg" width="500" height="500" style="width:100%;height:100%;transform:translate3d(0,0,0);content-visibility:visible" viewBox="0 0 500 500"><defs><clipPath id="c"><path d="M0 0h500v500H0z"/></clipPath><clipPath id="m"><path d="M0 0h500v500H0z"/></clipPath><clipPath id="j"><path d="M0 0h500v500H0z"/></clipPath><clipPath id="k"><path d="M0 0h500v500H0z"/></clipPath><clipPath id="g"><path d="M0 0h500v500H0z"/></clipPath><clipPath id="h"><path d="M0 0h500v500H0z"/></clipPath><clipPath id="i"><path d="M0 0h500v500H0z"/></clipPath><clipPath id="d"><path d="M0 0h500v500H0z"/></clipPath><clipPath id="e"><path d="M0 0h500v500H0z"/></clipPath><mask id="l" mask-type="alpha"><use xmlns:ns1="http://www.w3.org/1999/xlink" ns1:href="#a"/></mask><mask id="f" mask-type="alpha"><use xmlns:ns2="http://www.w3.org/1999/xlink" ns2:href="#b"/></mask><path id="b" fill="red" d="M21.978-33.762a.206.206 0 0 0-.21-.198c-.113 0-1.55-.003-3.205-.009l-45.344-.144c-1.656-.006-3.06-.01-3.136-.008-.075.001-.138.043-.14.093-.001.05.045 1.434.105 3.09l2.248 62.642a3.125 3.125 0 0 0 3.108 2.99l39.778-.097c1.656-.004 3.075-1.35 3.167-3.002l3.466-62.163c.092-1.653.165-3.084.163-3.194z" style="display:block" transform="matrix(4.5 0 0 4.5 270.248 271.25)"/><g id="a" style="display:block"><path fill="#4BB3FD" d="M135.185 124.18c.077 2.246.176 4.95.279 7.844-.002 0 10.118 281.893 10.118 281.893.267 7.446 6.533 13.477 13.984 13.458l179.001-.437c7.45-.019 13.837-6.073 14.252-13.513l15.596-279.73c.19-3.417.365-6.625.491-9.141"/><path fill-opacity="0" stroke="#EBE6EF" stroke-linecap="round" stroke-linejoin="round" stroke-width="7.2" d="M193.658 208.952v155.907m58.671-155.907v155.907m58.41-155.907v155.907"/></g></defs><g clip-path="url(#c)"><g clip-path="url(#d)" opacity="0" style="display:block"><g clip-path="url(#e)" opacity="1" style="display:block"><g opacity="1" style="display:block"><path fill="#636D78" d="m254 199-53 86 34 25 54-14 31-26-66-71z"/><path fill="none" stroke="#636D78" stroke-linecap="round" stroke-linejoin="round" stroke-width="5" d="m254 199-53 86 34 25 54-14 31-26-66-71z"/></g><g opacity=".5" style="mix-blend-mode:multiply;display:block"><g opacity="1"><path fill="#636D78" d="m254 199-53 86 34 25 54-14 31-26-66-71z"/><path fill="none" stroke="#636D78" stroke-linecap="round" stroke-linejoin="round" stroke-width="5" d="m254 199-53 86 34 25 54-14 31-26-66-71z"/></g></g><g opacity="1" style="display:block"><path fill="#636D78" d="m304 232-69 46 50 65 54-14 15-66-50-31z"/><path fill="none" stroke="#636D78" stroke-linecap="round" stroke-linejoin="round" stroke-width="5" d="m304 232-69 46 50 65 54-14 15-66-50-31z"/></g><g opacity="1" style="display:block"><path fill="#636D78" d="m262.118 321.118-21.731-80.03-77.505 26.794-3.857 55.652 57.831 35.165 45.262-37.581z"/><path fill="none" stroke="#636D78" stroke-linecap="round" stroke-linejoin="round" stroke-width="5" d="m262.118 321.118-21.731-80.03-77.505 26.794-3.857 55.652 57.831 35.165 45.262-37.581z"/></g><g opacity="1" style="display:block"><path fill="#636D78" d="m254.587 48.967-53 86 40.297 48.93 54-14 24.703-49.93-66-71z"/><path fill="none" stroke="#636D78" stroke-linecap="round" stroke-linejoin="round" stroke-width="5" d="m254.587 48.967-53 86 40.297 48.93 54-14 24.703-49.93-66-71z"/></g><g opacity=".5" style="mix-blend-mode:multiply;display:block"><g opacity="1"><path fill="#636D78" d="m254.587 48.967-53 86 40.297 48.93 54-14 24.703-49.93-66-71z"/><path fill="none" stroke="#636D78" stroke-linecap="round" stroke-linejoin="round" stroke-width="5" d="m254.587 48.967-53 86 40.297 48.93 54-14 24.703-49.93-66-71z"/></g></g><g opacity="1" style="display:block"><path fill="#636D78" d="m301.69 73.151-38.773 37.184 22.292 58.703 66.595-14.383-1.373-34.514-48.741-46.99z"/><path fill="none" stroke="#636D78" stroke-linecap="round" stroke-linejoin="round" stroke-width="5" d="m301.69 73.151-38.773 37.184 22.292 58.703 66.595-14.383-1.373-34.514-48.741-46.99z"/></g><g opacity="1" style="display:block"><path fill="#636D78" d="m262.118 142.118-21.731-80.03-77.505 26.794-3.857 55.652 57.831 35.165 45.262-37.581z"/><path fill="none" stroke="#636D78" stroke-linecap="round" stroke-linejoin="round" stroke-width="5" d="m262.118 142.118-21.731-80.03-77.505 26.794-3.857 55.652 57.831 35.165 45.262-37.581z"/></g></g><g opacity="1" style="display:block"><path fill="#4AB3FC" d="M369.149 119.32c-.01-.494-.432-.893-.943-.89-.51.002-6.974-.015-14.424-.04l-204.049-.65c-7.45-.025-13.774-.04-14.112-.035-.337.005-.619.193-.627.419-.009.226.201 6.454.468 13.9l10.12 281.893c.267 7.446 6.533 13.477 13.984 13.458l179.001-.437c7.45-.019 13.837-6.073 14.252-13.513l15.596-279.73c.415-7.439.744-13.88.734-14.374z" opacity="1"/><path fill="none" stroke="#EBE6EE" stroke-linecap="round" stroke-linejoin="round" stroke-width="7.2" d="M193.658 208.952v155.907m58.671-155.907v155.907m58.41-155.907v155.907" opacity="1"/></g><g mask="url(#f)" style="mix-blend-mode:multiply;display:block"><path fill="#4AB3FC" d="m371.465 119.31-.87 2.72-236.673 1.387-1.395-4.107c0-1.1.9-2 2-2h234.938c1.1 0 2 .9 2 2z" opacity="0"/></g><g style="display:none"><path fill="none"/><path/></g></g><g clip-path="url(#g)" opacity="0" style="display:block"><g clip-path="url(#h)" opacity="1" style="display:block"><g clip-path="url(#i)" opacity="1" style="display:block"><g style="display:none"><path/><path fill="none"/></g><g style="mix-blend-mode:multiply;display:none"><path/><path fill="none"/></g><g style="display:none"><path/><path fill="none"/></g><g opacity="1" style="display:block"><path fill="#636D78" d="m262.118-73.406-21.731-80.03-77.505 26.794-3.857 55.652 57.831 35.165 45.262-37.581z"/><path fill="none" stroke="#636D78" stroke-linecap="round" stroke-linejoin="round" stroke-width="5" d="m262.118-73.406-21.731-80.03-77.505 26.794-3.857 55.652 57.831 35.165 45.262-37.581z"/></g></g><g opacity="1" style="display:block"><path fill="#636D78" d="m254.587 48.967-53 86 40.297 48.93 54-14 24.703-49.93-66-71z"/><path fill="none" stroke="#636D78" stroke-linecap="round" stroke-linejoin="round" stroke-width="5" d="m254.587 48.967-53 86 40.297 48.93 54-14 24.703-49.93-66-71z"/></g><g opacity=".5" style="mix-blend-mode:multiply;display:block"><g opacity="1"><path fill="#636D78" d="m254.587 48.967-53 86 40.297 48.93 54-14 24.703-49.93-66-71z"/><path fill="none" stroke="#636D78" stroke-linecap="round" stroke-linejoin="round" stroke-width="5" d="m254.587 48.967-53 86 40.297 48.93 54-14 24.703-49.93-66-71z"/></g></g><g opacity="1" style="display:block"><path fill="#636D78" d="m301.69 73.151-38.773 37.184 22.292 58.703 66.595-14.383-1.373-34.514-48.741-46.99z"/><path fill="none" stroke="#636D78" stroke-linecap="round" stroke-linejoin="round" stroke-width="5" d="m301.69 73.151-38.773 37.184 22.292 58.703 66.595-14.383-1.373-34.514-48.741-46.99z"/></g><g opacity="1" style="display:block"><path fill="#636D78" d="m262.118 142.118-21.731-80.03-77.505 26.794-3.857 55.652 57.831 35.165 45.262-37.581z"/><path fill="none" stroke="#636D78" stroke-linecap="round" stroke-linejoin="round" stroke-width="5" d="m262.118 142.118-21.731-80.03-77.505 26.794-3.857 55.652 57.831 35.165 45.262-37.581z"/></g></g><g opacity="1" style="display:block"><path fill="#4AB3FC" d="M369.149 119.32c-.01-.494-.432-.893-.943-.89-.51.002-6.974-.015-14.424-.04l-204.049-.65c-7.45-.025-13.774-.04-14.111-.035-.338.005-.62.193-.628.419-.009.226.201 6.454.468 13.9l10.12 281.893c.267 7.446 6.533 13.477 13.984 13.458l179.001-.437c7.45-.019 13.837-6.073 14.252-13.513l15.596-279.73c.415-7.439.744-13.88.734-14.374zm-175.491 87.4V362.6m58.68-155.88V362.6m58.41-155.88V362.6"/><path fill="none" stroke="#EBE6EE" stroke-linecap="round" stroke-linejoin="round" stroke-width="7.2" d="M193.658 206.702v155.907m58.671-155.907v155.907m58.41-155.907v155.907" opacity="1"/></g></g><g clip-path="url(#j)" opacity="0" style="display:block"><g clip-path="url(#k)" opacity="1" style="display:block"><g style="display:none"><path/><path fill="none"/></g><g style="mix-blend-mode:multiply;display:none"><path/><path fill="none"/></g><g opacity="1" style="display:block"><path fill="#636D78" d="m304-120-69 46 50 65 54-14 15-66-50-31z"/><path fill="none" stroke="#636D78" stroke-linecap="round" stroke-linejoin="round" stroke-width="5" d="m304-120-69 46 50 65 54-14 15-66-50-31z"/></g><g style="display:none"><path/><path fill="none"/></g><g style="display:none"><path/><path fill="none"/></g><g style="mix-blend-mode:multiply;display:none"><path/><path fill="none"/></g><g style="display:none"><path/><path fill="none"/></g><g style="display:none"><path/><path fill="none"/></g></g><g opacity="1" style="display:block"><path fill="#4AB3FC" d="M135.185 124.18c.077 2.246.176 4.95.279 7.844-.002 0 10.118 281.893 10.118 281.893.267 7.446 6.533 13.477 13.984 13.458l179.001-.437c7.45-.019 13.837-6.073 14.252-13.513l15.596-279.73c.19-3.417.365-6.625.491-9.141" opacity="1"/><path fill="none" stroke="#EBE6EE" stroke-linecap="round" stroke-linejoin="round" stroke-width="7.2" d="M193.658 208.952v155.907m58.671-155.907v155.907m58.41-155.907v155.907" opacity="1"/></g><g mask="url(#l)" style="mix-blend-mode:multiply;display:block"><path fill="#4AB3FC" d="m371.465 119.31-3.15 61.719H135.677l-3.15-61.72c0-1.1.9-2 2-2h234.938c1.1 0 2 .9 2 2z" opacity=".6"/></g><g opacity="1" style="display:block"><path fill="none" stroke="#4AB3FC" stroke-linecap="round" stroke-linejoin="round" stroke-width="10" d="M295.954 115.704c0-24.261-22.553-41.846-43.744-41.846 0 0 0 0 0 0-22.712 0-41.517 16.866-44.568 38.74v5.836h88.312v-2.73z" opacity="1"/><path fill="#4AB3FC" d="M379.501 157.704H124.095c-5.523 0-10-4.477-10-10v-25.9c0-5.523 4.477-10 10-10h255.406c5.523 0 10 4.477 10 10v25.9c0 5.523-4.477 10-10 10z" opacity="1"/></g></g><g clip-path="url(#m)" style="display:block"><g fill="#636D78" opacity="0" style="display:block"><path d="M367.93 117.312H133.002a2 2 0 0 0-2 2v281.333c0 14.888 12.112 27 27 27h184.93c14.888 0 27-12.112 27-27V119.312a2 2 0 0 0-2-2z" opacity="1"/><path d="M95.955 141.188H-75.394c-13.794 0-25.017-12.112-25.017-27v-269.356h-17.055a2 2 0 0 0-2 2v281.336c0 14.888 12.112 27 27 27H92.466c14.888 0 27-12.112 27-27v-4.753c-3.5 10.358-12.718 17.773-23.511 17.773z" opacity=".5" style="mix-blend-mode:multiply" transform="translate(250.466 272.478) scale(.99999)"/></g><g fill="none" stroke-linecap="round" stroke-linejoin="round" opacity="0" style="display:block"><path stroke="#EBE6EE" stroke-width="9" d="M193.658 190.952v155.907m58.671-155.907v155.907m58.41-155.907v155.907" opacity="1"/><path stroke="#4AB3FC" stroke-width="10.8" d="m112.388 117.687 278.816.765M207.82 111.85c3.05-21.874 21.856-38.74 44.568-38.74 0 0 0 0 0 0 23.139 0 42.223 17.5 44.72 39.978" opacity="1"/></g><g style="display:block"><path fill="#4AB3FC" d="m369.468 119.31-1.98 38.89-1.17 22.829-12.1 237.128a9.994 9.994 0 0 1-9.98 9.49H155.76c-5.32 0-9.71-4.17-9.98-9.49l-12.1-237.128-1.17-22.83-1.98-38.89c0-1.1.9-2 2-2h234.938c1.1 0 2 .9 2 2z"/><path fill="none" stroke="#EBE6EE" stroke-linecap="round" stroke-linejoin="round" stroke-width="7" d="M191.46 209.192v155.906m58.669-155.906v155.906m58.41-155.906v155.906"/><path fill="#4AB3FC" d="m119.47-29.86-3.15 61.72h-232.64l-3.15-61.72c0-1.1.9-2 2-2h234.94c1.1 0 2 .9 2 2z" opacity=".6" style="mix-blend-mode:multiply" transform="translate(249.999 149.17) scale(.99999)"/></g><g style="display:block"><path fill="none" stroke="#4AB3FC" stroke-linecap="round" stroke-linejoin="round" stroke-width="10" d="M293.402 116.171c0-24.26-22.553-41.845-43.743-41.845 0 0 0 0 0 0-22.712 0-41.517 16.865-44.568 38.74v5.835h88.311v-2.73z"/><path fill="#4AB3FC" d="M376.948 158.17H121.545c-5.523 0-10-4.476-10-10v-25.899c0-5.523 4.477-10 10-10h255.403c5.523 0 10 4.477 10 10v25.9c0 5.523-4.477 10-10 10z"/></g></g><g class="com" style="display:none"><path/><path/><path/><path/><path/><path/><path/><path/><path/><path/><path/><path/></g></g></svg>