<svg xmlns="http://www.w3.org/2000/svg" width="500" height="500" style="width:100%;height:100%;transform:translate3d(0,0,0);content-visibility:visible" viewBox="0 0 500 500"><defs><filter id="a" width="100%" height="100%" x="0%" y="0%" filterUnits="objectBoundingBox"><feComponentTransfer in="SourceGraphic"><feFuncA tableValues="1.0 0.0" type="table"/></feComponentTransfer></filter><filter id="c" width="100%" height="100%" x="0%" y="0%" filterUnits="objectBoundingBox"><feComponentTransfer in="SourceGraphic"><feFuncA tableValues="1.0 0.0" type="table"/></feComponentTransfer></filter><mask id="g" mask-type="alpha"><g filter="url(#a)"><path fill="#fff" d="M0 0h500v500H0z" opacity="0"/><use xmlns:ns1="http://www.w3.org/1999/xlink" ns1:href="#b"/></g></mask><mask id="f" mask-type="alpha"><g filter="url(#c)"><path fill="#fff" d="M0 0h500v500H0z" opacity="0"/><use xmlns:ns2="http://www.w3.org/1999/xlink" ns2:href="#d"/></g></mask><g id="b" style="display:none"><path fill-opacity="0"/><path/></g><g id="d" style="display:block"><path fill-opacity="0" stroke="#636D78" stroke-width="0" d="M250.5 409.5V602H89V409.5h161.5z"/><path fill="red" d="M250.5 409.5V602H89V409.5h161.5z"/></g><clipPath id="e"><path d="M0 0h500v500H0z"/></clipPath></defs><g clip-path="url(#e)"><g style="display:block"><path fill="#EBE6EE" d="M250.002 141.257v268.86h-137.71c-12.38 0-22.41-10.03-22.41-22.41v-246.45h160.12zm160.12-28.97v28.97H89.882v-28.97c0-12.37 10.03-22.41 22.41-22.41h275.42c12.37 0 22.41 10.04 22.41 22.41z"/><path fill="#EBE6EE" d="M160.12-3.28v28.97h-320.24V-3.28c0-12.37 10.03-22.41 22.41-22.41h275.42c12.37 0 22.41 10.04 22.41 22.41z" opacity=".5" style="mix-blend-mode:multiply" transform="translate(250.002 115.567)"/><path fill="#FFC638" d="M410.122 141.257v134.43h-160.12v-134.43h160.12z"/><path fill="#F8C8C0" d="M410.122 275.687v112.02c0 12.38-10.04 22.41-22.41 22.41h-137.71v-134.43h160.12z"/><path fill="none" stroke="#2CA48D" stroke-linecap="round" stroke-linejoin="round" stroke-width="12" d="M177.864 115.567H178"/><path fill="none" stroke="#92130B" stroke-linecap="round" stroke-linejoin="round" stroke-width="12" d="M121.568 115.567h.136"/><path fill="none" stroke="#FFC638" stroke-linecap="round" stroke-linejoin="round" stroke-width="12" d="M149.716 115.567h.136"/></g><path style="display:none"/><g fill="#636D78" mask="url(#f)" style="display:block"><path d="M160.748 486.827h17.748c9.802 0 17.748 7.946 17.748 17.748v5.937c0 1.629-1.221 3-2.839 3.187l-6.211.718c-1.697.196-3.357.63-4.933 1.289a32.938 32.938 0 0 1-25.345.026l-.043-.018a19.102 19.102 0 0 0-5.146-1.338l-5.887-.678a3.208 3.208 0 0 1-2.84-3.187v-5.936c0-9.802 7.946-17.748 17.748-17.748zm8.481-50.355h.786c6.838 0 12.314 5.669 12.076 12.503l-.394 11.306c-.226 6.506-5.565 11.663-12.075 11.663-6.51 0-11.849-5.157-12.075-11.663l-.394-11.306c-.238-6.834 5.238-12.503 12.076-12.503z"/><path d="M181.48 516.023a32.85 32.85 0 0 1-24.56-.29l-.04-.01c-1.65-.69-3.38-1.14-5.15-1.34l-5.89-.68a3.212 3.212 0 0 1-2.84-3.19v-5.93c0-9.73 7.84-17.64 17.55-17.75-5.67 2.97-9.55 8.91-9.55 15.75v5.93c0 1.63 1.22 3 2.84 3.19l5.89.68c1.77.2 3.5.65 5.15 1.34l.04.01c4.05 1.69 8.35 2.53 12.65 2.53 1.31 0 2.61-.08 3.91-.24zm-5.1-46.14a12 12 0 0 1-6.76 2.07c-3.25 0-6.21-1.29-8.39-3.39a12.085 12.085 0 0 1-3.68-8.28l-.39-11.3c-.24-6.84 5.23-12.51 12.07-12.51h.79c.18 0 .35 0 .52.02a12.09 12.09 0 0 0-5.38 10.49l.39 11.3c.12 3.26 1.5 6.17 3.68 8.28 1.9 1.83 4.39 3.04 7.15 3.32z" opacity=".5" style="mix-blend-mode:multiply"/></g><path fill="none" style="display:none"/><g mask="url(#g)" style="display:none"><path/><path/><g style="mix-blend-mode:multiply"><path/><path/></g></g><path fill="none" style="display:none"/><g style="display:block"><path fill="#92130B" d="M322.472 352.708h17.748c9.802 0 17.748 7.946 17.748 17.748v5.937c0 1.629-1.221 3-2.839 3.187l-6.211.718c-1.697.196-3.357.63-4.933 1.289a32.938 32.938 0 0 1-25.345.026l-.043-.018a19.102 19.102 0 0 0-5.146-1.338l-5.887-.678a3.208 3.208 0 0 1-2.84-3.187v-5.936c0-9.802 7.946-17.748 17.748-17.748zm8.481-50.355h.786c6.838 0 12.314 5.669 12.076 12.503l-.394 11.306c-.226 6.506-5.565 11.663-12.075 11.663-6.51 0-11.849-5.157-12.075-11.663l-.394-11.306c-.238-6.834 5.238-12.503 12.076-12.503z"/><g opacity=".5" style="mix-blend-mode:multiply"><path fill="#92130B" d="M343.202 381.899a32.85 32.85 0 0 1-24.56-.29l-.04-.01c-1.65-.69-3.38-1.14-5.15-1.34l-5.89-.68a3.212 3.212 0 0 1-2.84-3.19v-5.93c0-9.73 7.84-17.64 17.55-17.75-5.67 2.97-9.55 8.91-9.55 15.75v5.93c0 1.63 1.22 3 2.84 3.19l5.89.68c1.77.2 3.5.65 5.15 1.34l.04.01c4.05 1.69 8.35 2.53 12.65 2.53 1.31 0 2.61-.08 3.91-.24zm-5.1-46.14a12 12 0 0 1-6.76 2.07c-3.25 0-6.21-1.29-8.39-3.39a12.085 12.085 0 0 1-3.68-8.28l-.39-11.3c-.24-6.84 5.23-12.51 12.07-12.51h.79c.18 0 .35 0 .52.02a12.09 12.09 0 0 0-5.38 10.49l.39 11.3c.12 3.26 1.5 6.17 3.68 8.28 1.9 1.83 4.39 3.04 7.15 3.32z" opacity="1"/></g></g><path fill="none" stroke="#636D78" stroke-linecap="round" stroke-linejoin="round" stroke-width="12" d="M-.068 0h.136" style="display:block" transform="translate(383.931 300.91)"/><g style="display:block"><path fill="#2CA48D" d="M322.242 217.591h17.748c9.802 0 17.748 7.946 17.748 17.748v5.937c0 1.629-1.221 3-2.839 3.187l-6.211.718c-1.697.196-3.357.63-4.933 1.289a32.938 32.938 0 0 1-25.345.026l-.043-.018a19.102 19.102 0 0 0-5.146-1.338l-5.887-.678a3.208 3.208 0 0 1-2.84-3.187v-5.936c0-9.802 7.946-17.748 17.748-17.748zm8.481-50.355h.786c6.838 0 12.314 5.669 12.076 12.503l-.394 11.306c-.226 6.506-5.565 11.663-12.075 11.663-6.51 0-11.849-5.157-12.075-11.663l-.394-11.306c-.238-6.834 5.238-12.503 12.076-12.503z"/><g opacity=".5" style="mix-blend-mode:multiply"><path fill="#2CA48D" d="M342.974 246.786a32.85 32.85 0 0 1-24.56-.29l-.04-.01c-1.65-.69-3.38-1.14-5.15-1.34l-5.89-.68a3.212 3.212 0 0 1-2.84-3.19v-5.93c0-9.73 7.84-17.64 17.55-17.75-5.67 2.97-9.55 8.91-9.55 15.75v5.93c0 1.63 1.22 3 2.84 3.19l5.89.68c1.77.2 3.5.65 5.15 1.34l.04.01c4.05 1.69 8.35 2.53 12.65 2.53 1.31 0 2.61-.08 3.91-.24zm-5.099-46.14a12 12 0 0 1-6.76 2.07c-3.25 0-6.21-1.29-8.39-3.39a12.085 12.085 0 0 1-3.68-8.28l-.39-11.3c-.24-6.84 5.23-12.51 12.07-12.51h.79c.18 0 .35 0 .52.02a12.09 12.09 0 0 0-5.38 10.49l.39 11.3c.12 3.26 1.5 6.17 3.68 8.28 1.9 1.83 4.39 3.04 7.15 3.32z" opacity="1"/></g></g><path fill="none" stroke="#636D78" stroke-linecap="round" stroke-linejoin="round" stroke-width="12" d="M-.068 0h.136" style="display:block" transform="translate(383.932 165.909)"/><path fill="none" style="display:none"/><path fill="none" style="display:none"/><path fill="none" stroke="#F14B00" stroke-linecap="round" stroke-linejoin="round" stroke-width="12" d="M-.068 0h.136" style="display:block" transform="translate(221.982 165.909)"/><g style="display:block"><path fill="#4AB3FC" d="M154.992 287.759h30.504c16.847 0 30.504 13.687 30.504 30.572v10.228a5.52 5.52 0 0 1-4.879 5.488l-10.674 1.238a31.26 31.26 0 0 0-8.48 2.22 56.494 56.494 0 0 1-43.562.045l-.073-.03a32.768 32.768 0 0 0-8.846-2.305l-10.117-1.169a5.52 5.52 0 0 1-4.881-5.489v-10.226c0-16.885 13.657-30.572 30.504-30.572zm14.574-79.152h1.356c11.779 0 21.21 9.765 20.801 21.537l-.678 19.477c-.39 11.207-9.588 20.091-20.801 20.091s-20.411-8.884-20.801-20.091l-.678-19.477c-.409-11.772 9.022-21.537 20.801-21.537z"/><g opacity=".5" style="mix-blend-mode:multiply"><path fill="#4AB3FC" d="M185.165 339.853a56.091 56.091 0 0 1-15.028 2.045 56.4 56.4 0 0 1-21.728-4.35l-.079-.029a32.697 32.697 0 0 0-8.848-2.305l-10.112-1.167a5.51 5.51 0 0 1-4.877-5.486v-10.235c0-16.878 13.655-30.564 30.495-30.564h2.1c-11.486 4.369-19.657 15.522-19.657 28.569v10.235a5.51 5.51 0 0 0 4.877 5.486l10.112 1.167a32.702 32.702 0 0 1 8.849 2.304l.079.03a56.395 56.395 0 0 0 21.727 4.35c.697 0 1.393-.01 2.09-.05zm-5.433-72.433a20.664 20.664 0 0 1-9.487 2.294 20.762 20.762 0 0 1-14.454-5.845 20.737 20.737 0 0 1-6.344-14.245l-.678-19.481c-.409-11.771 9.017-21.537 20.798-21.537h1.357c.818 0 1.626.05 2.414.14-7.102 3.511-11.89 10.933-11.601 19.402l.678 19.481c.19 5.596 2.595 10.622 6.344 14.245a20.698 20.698 0 0 0 10.973 5.546z" opacity="1"/></g></g><path fill="none" style="display:none"/><path fill="none" style="display:none"/><g class="com" style="display:none"><path/><path/><path/><path/><path/><path/><path/><path/><path/><path/><path/><path/></g></g></svg>